<svg width="18" height="18" viewBox="0 0 18 18" fill="none" xmlns="http://www.w3.org/2000/svg">
<path d="M13 3C13 4.10457 12.1046 5 11 5C9.89543 5 9 4.10457 9 3M13 3C13 1.89543 12.1046 1 11 1C9.89543 1 9 1.89543 9 3M13 3H17M9 3H1M7 9C7 10.1046 6.10457 11 5 11C3.89543 11 3 10.1046 3 9M7 9C7 7.89543 6.10457 7 5 7C3.89543 7 3 7.89543 3 9M7 9H17M3 9H1M16 15C16 16.1046 15.1046 17 14 17C12.8954 17 12 16.1046 12 15M16 15C16 13.8954 15.1046 13 14 13C12.8954 13 12 13.8954 12 15M16 15H17M12 15H1" stroke="#243D97" stroke-width="2" stroke-linecap="round" stroke-linejoin="round"/>
</svg>
